<?xml version="1.0" encoding="UTF-8" standalone="no"?>
<!-- Created with Inkscape (http://www.inkscape.org/) -->
<svg xmlns:svg="http://www.w3.org/2000/svg" xmlns="http://www.w3.org/2000/svg" xmlns:dc="http://purl.org/dc/elements/1.1/" xmlns:cc="http://web.resource.org/cc/" xmlns:rdf="http://www.w3.org/1999/02/22-rdf-syntax-ns#" version="1.0" width="299" height="651" viewBox="67.5 -182.5 299 651" id="Layer_1" xml:space="preserve"><defs id="defs343"/>
<polygon points="84,91 68,89 73,80 89,82 84,91 " id="polygon3" style="fill:#cc0000;stroke:#000000;stroke-linecap:round;stroke-linejoin:round"/>
<polygon points="84,103 68,100 68,89 84,91 84,103 " id="polygon5" style="fill:#cc0000;stroke:#000000;stroke-linecap:round;stroke-linejoin:round"/>
<polygon points="90,106 74.55,103.382 68,100 84,103 90,106 " id="polygon7" style="fill:#cc0000;stroke:#000000;stroke-linecap:round;stroke-linejoin:round"/>
<g id="g9">
	<linearGradient x1="82.439499" y1="128.6138" x2="94.6922" y2="59.124699" id="SVGID_1_" gradientUnits="userSpaceOnUse">
		<stop id="stop12" style="stop-color:#cc0000;stop-opacity:1" offset="0.55489999"/>
		<stop id="stop14" style="stop-color:#ff0000;stop-opacity:1" offset="0.7033"/>
		<stop id="stop16" style="stop-color:#cc0000;stop-opacity:1" offset="0.86809999"/>
	</linearGradient>
	<path d="M 98,131 C 98,131 94.625,130.55 90.5,130 C 86.375,129.45 81.65,128.1 80,127 C 78.35,125.9 76.1,122.975 75,120.5 C 73.9,118.025 72.55,113.075 72,109.5 C 71.45,105.925 71.225,100.075 71.5,96.5 C 71.775,92.925 72.9,87.075 74,83.5 C 75.1,79.925 77.35,74.525 79,71.5 C 80.65,68.475 83.575,64.65 85.5,63 C 87.425,61.35 90.575,60 92.5,60 C 94.425,60 99.375,60.45 103.5,61 C 107.625,61.55 111,62 111,62" id="path18" style="fill:url(#SVGID_1_)"/>
	<path d="M 98,131 C 98,131 94.625,130.55 90.5,130 C 86.375,129.45 81.65,128.1 80,127 C 78.35,125.9 76.1,122.975 75,120.5 C 73.9,118.025 72.55,113.075 72,109.5 C 71.45,105.925 71.225,100.075 71.5,96.5 C 71.775,92.925 72.9,87.075 74,83.5 C 75.1,79.925 77.35,74.525 79,71.5 C 80.65,68.475 83.575,64.65 85.5,63 C 87.425,61.35 90.575,60 92.5,60 C 94.425,60 99.375,60.45 103.5,61 C 107.625,61.55 111,62 111,62" id="path20" style="fill:none;stroke:#000000;stroke-linecap:round;stroke-linejoin:round"/>
</g>
<polygon points="104,63 111,62 117,67 121,76 122,88 121,101 117,114 112,124 105,130 98,131 92,127 88,118 86,106 87,92 91,79 97,69 104,63 " id="polygon22" style="fill:#cc0000;stroke:#000000;stroke-linecap:round;stroke-linejoin:round"/>
<line fill="#CC0000" stroke="#000000" stroke-linecap="round" stroke-linejoin="round" x1="127" y1="85" x2="125" y2="70" id="line24" style="fill:#cc0000;stroke:#000000;stroke-linecap:round;stroke-linejoin:round"/>
<line fill="#CC0000" stroke="#000000" stroke-linecap="round" stroke-linejoin="round" x1="126" y1="102" x2="127" y2="85" id="line26" style="fill:#cc0000;stroke:#000000;stroke-linecap:round;stroke-linejoin:round"/>
<line fill="#CC0000" stroke="#000000" stroke-linecap="round" stroke-linejoin="round" x1="121" y1="119" x2="126" y2="102" id="line28" style="fill:#cc0000;stroke:#000000;stroke-linecap:round;stroke-linejoin:round"/>
<line fill="#CC0000" stroke="#000000" stroke-linecap="round" stroke-linejoin="round" x1="114" y1="132" x2="121" y2="119" id="line30" style="fill:#cc0000;stroke:#000000;stroke-linecap:round;stroke-linejoin:round"/>
<g id="g32">
	<linearGradient x1="100.1216" y1="149.6133" x2="118.6806" y2="44.359501" id="SVGID_2_" gradientUnits="userSpaceOnUse">
		<stop id="stop35" style="stop-color:#cc0000;stop-opacity:1" offset="0.55489999"/>
		<stop id="stop37" style="stop-color:#ff0000;stop-opacity:1" offset="0.7033"/>
		<stop id="stop39" style="stop-color:#cc0000;stop-opacity:1" offset="0.86809999"/>
	</linearGradient>
	<path d="M 145,49 L 113.953,52.029 C 108.479,52.563 101.975,54.8 99.5,57 C 97.025,59.2 93.2,63.925 91,67.5 C 88.8,71.075 86.1,77.825 85,82.5 C 83.9,87.175 82.55,95.05 82,100 C 81.45,104.95 81.45,112.375 82,116.5 C 82.55,120.625 84.35,126.7 86,130 C 87.65,133.3 90.575,137.125 92.5,138.5 C 94.425,139.875 100.106,142.841 105.125,145.09 L 125,154" id="path41" style="fill:url(#SVGID_2_)"/>
	<path d="M 145,49 L 113.953,52.029 C 108.479,52.563 101.975,54.8 99.5,57 C 97.025,59.2 93.2,63.925 91,67.5 C 88.8,71.075 86.1,77.825 85,82.5 C 83.9,87.175 82.55,95.05 82,100 C 81.45,104.95 81.45,112.375 82,116.5 C 82.55,120.625 84.35,126.7 86,130 C 87.65,133.3 90.575,137.125 92.5,138.5 C 94.425,139.875 100.106,142.841 105.125,145.09 L 125,154" id="path43" style="fill:none;stroke:#000000;stroke-linecap:round;stroke-linejoin:round"/>
</g>
<g id="g45">
	<path d="M 149,52.5 C 146.8,50.575 142.75,49.225 140,49.5 C 137.25,49.775 132.525,52.025 129.5,54.5 C 126.475,56.975 122.2,62.6 120,67 C 117.8,71.4 114.707,79.31 113.126,84.578 L 112.873,85.422 C 111.292,90.69 109.573,99.48 109.051,104.955 L 108.947,106.045 C 108.426,111.521 108.449,120.275 108.999,125.5 C 109.549,130.725 111.574,137.925 113.499,141.5 C 115.424,145.075 118.799,149.35 120.999,151 C 123.199,152.65 127.474,153.55 130.499,153 C 133.524,152.45 138.249,149.975 140.999,147.5 C 143.749,145.025 147.799,139.4 149.999,135 C 152.199,130.6 155.124,122.725 156.499,117.5 C 157.874,112.275 159.447,103.522 159.994,98.05 L 160.004,97.95 C 160.551,92.477 160.549,83.95 159.999,79 C 159.449,74.05 157.649,66.85 155.999,63 C 154.349,59.15 151.2,54.425 149,52.5 z" id="path47" style="fill:#cc0000"/>
	<path d="M 149,52.5 C 146.8,50.575 142.75,49.225 140,49.5 C 137.25,49.775 132.525,52.025 129.5,54.5 C 126.475,56.975 122.2,62.6 120,67 C 117.8,71.4 114.707,79.31 113.126,84.578 L 112.873,85.422 C 111.292,90.69 109.573,99.48 109.051,104.955 L 108.947,106.045 C 108.426,111.521 108.449,120.275 108.999,125.5 C 109.549,130.725 111.574,137.925 113.499,141.5 C 115.424,145.075 118.799,149.35 120.999,151 C 123.199,152.65 127.474,153.55 130.499,153 C 133.524,152.45 138.249,149.975 140.999,147.5 C 143.749,145.025 147.799,139.4 149.999,135 C 152.199,130.6 155.124,122.725 156.499,117.5 C 157.874,112.275 159.447,103.522 159.994,98.05 L 160.004,97.95 C 160.551,92.477 160.549,83.95 159.999,79 C 159.449,74.05 157.649,66.85 155.999,63 C 154.349,59.15 151.2,54.425 149,52.5 z" id="path49" style="fill:none;stroke:#000000;stroke-linecap:round;stroke-linejoin:round"/>
</g>
<title id="title51">hydrant c.aoi</title>
<polygon points="127,446 126,427 215,449 215,468 127,446 " id="polygon53" style="fill:#cc0000;stroke:#000000;stroke-linecap:round;stroke-linejoin:round"/>
<polygon points="215,468 215,449 300,424 299,444 215,468 " id="polygon55" style="fill:#cc0000;stroke:#000000;stroke-linecap:round;stroke-linejoin:round"/>
<polygon points="126,427 215,449 300,424 292,382 208,363 127,384 126,427 " id="polygon57" style="fill:#ff0000;stroke:#000000;stroke-linecap:round;stroke-linejoin:round"/>
<polygon points="215,391 136,373 137,424 215,443 215,391 " id="polygon59" style="fill:#cc0000;stroke:#000000;stroke-linecap:round;stroke-linejoin:round"/>
<polygon points="215,391 290,371 289,422 215,443 215,391 " id="polygon61" style="fill:#cc0000;stroke:#000000;stroke-linecap:round;stroke-linejoin:round"/>
<polygon points="215,391 136,373 136,337 208,319 283,335 290,371 215,391 " id="polygon63" style="fill:#ff0000;stroke:#000000;stroke-linecap:round;stroke-linejoin:round"/>
<g id="g65">
	<path d="M 292,18 L 287.147,346.001 C 287.066,351.501 285.2,358.7 283,362 C 280.8,365.3 275.066,370.186 270.259,372.856 L 269.741,373.143 C 264.933,375.814 256.607,378.976 251.238,380.168 L 243.761,381.83 C 238.392,383.022 229.502,384.149 224.005,384.332 L 213.993,384.666 C 208.496,384.849 199.523,384.536 194.052,383.97 L 184.946,383.029 C 179.475,382.463 170.809,380.36 165.687,378.356 L 161.312,376.643 C 156.19,374.639 149.075,370.525 145.5,367.499 C 141.925,364.473 138.55,359.299 138,355.999 C 137.45,352.699 136.946,345.499 136.881,340 L 133,14" id="path67" style="fill:#cc0000"/>
	<path d="M 292,18 L 287.147,346.001 C 287.066,351.501 285.2,358.7 283,362 C 280.8,365.3 275.066,370.186 270.259,372.856 L 269.741,373.143 C 264.933,375.814 256.607,378.976 251.238,380.168 L 243.761,381.83 C 238.392,383.022 229.502,384.149 224.005,384.332 L 213.993,384.666 C 208.496,384.849 199.523,384.536 194.052,383.97 L 184.946,383.029 C 179.475,382.463 170.809,380.36 165.687,378.356 L 161.312,376.643 C 156.19,374.639 149.075,370.525 145.5,367.499 C 141.925,364.473 138.55,359.299 138,355.999 C 137.45,352.699 136.946,345.499 136.881,340 L 133,14" id="path69" style="fill:none;stroke:#000000;stroke-linecap:round;stroke-linejoin:round"/>
</g>
<g id="g71">
	<g id="g73">
		<g id="g75">
			<linearGradient x1="118.2837" y1="152.48441" x2="135.80811" y2="53.098598" id="SVGID_3_" gradientUnits="userSpaceOnUse">
				<stop id="stop78" style="stop-color:#cc0000;stop-opacity:1" offset="0.55489999"/>
				<stop id="stop80" style="stop-color:#ff0000;stop-opacity:1" offset="0.7033"/>
				<stop id="stop82" style="stop-color:#cc0000;stop-opacity:1" offset="0.86809999"/>
			</linearGradient>
			<path d="M 134.842,154.198 C 134.929,153.539 135,152.55 135,152 C 135,151.45 135.225,148.3 135.5,145 C 135.775,141.7 136,134.95 136,130 C 136,125.05 135.791,116.505 135.535,111.011 L 134.465,87.99 C 134.209,82.495 134,75.975 134,73.5 C 134,71.025 133.877,65.24 133.728,60.645 C 133.579,56.05 133.287,52.442 133.081,52.627 C 132.874,52.813 131.197,54.323 129.352,55.982 C 127.508,57.642 123.975,62.6 121.499,67 C 119.023,71.4 115.706,79.31 114.125,84.578 L 113.872,85.422 C 112.291,90.69 110.572,99.48 110.05,104.955 L 109.946,106.045 C 109.425,111.521 109.673,120.275 110.498,125.5 C 111.323,130.725 113.348,137.925 114.998,141.5 C 116.648,145.075 120.023,149.35 122.498,151 C 124.973,152.65 128.727,154.314 130.84,154.698 C 132.955,155.082 134.754,154.857 134.842,154.198 z" id="path84" style="fill:url(#SVGID_3_)"/>
			<path d="M 134.842,154.198 C 134.929,153.539 135,152.55 135,152 C 135,151.45 135.225,148.3 135.5,145 C 135.775,141.7 136,134.95 136,130 C 136,125.05 135.791,116.505 135.535,111.011 L 134.465,87.99 C 134.209,82.495 134,75.975 134,73.5 C 134,71.025 133.877,65.24 133.728,60.645 C 133.579,56.05 133.287,52.442 133.081,52.627 C 132.874,52.813 131.197,54.323 129.352,55.982 C 127.508,57.642 123.975,62.6 121.499,67 C 119.023,71.4 115.706,79.31 114.125,84.578 L 113.872,85.422 C 112.291,90.69 110.572,99.48 110.05,104.955 L 109.946,106.045 C 109.425,111.521 109.673,120.275 110.498,125.5 C 111.323,130.725 113.348,137.925 114.998,141.5 C 116.648,145.075 120.023,149.35 122.498,151 C 124.973,152.65 128.727,154.314 130.84,154.698 C 132.955,155.082 134.754,154.857 134.842,154.198 z" id="path86" style="fill:none;stroke:#000000;stroke-linecap:round;stroke-linejoin:round"/>
		</g>
	</g>
</g>
<g id="g88">
	<linearGradient x1="260.29099" y1="177.0576" x2="279.3692" y2="68.860001" id="SVGID_4_" gradientUnits="userSpaceOnUse">
		<stop id="stop91" style="stop-color:#cc0000;stop-opacity:1" offset="0.55489999"/>
		<stop id="stop93" style="stop-color:#ff0000;stop-opacity:1" offset="0.7033"/>
		<stop id="stop95" style="stop-color:#cc0000;stop-opacity:1" offset="0.86809999"/>
	</linearGradient>
	<path d="M 304.039,84.237 C 304.848,78.797 301.795,73.368 297.255,72.173 C 292.715,70.978 287.65,70.45 286,71 C 284.35,71.55 280.697,74.117 277.883,76.704 C 275.069,79.292 270.793,83.117 268.383,85.204 C 265.973,87.292 262.248,91.267 260.106,94.039 C 257.964,96.811 253.318,102.524 249.781,106.736 L 248.432,108.342 C 244.895,112.554 240.958,120.377 239.684,125.728 L 239.317,127.272 C 238.043,132.623 237.883,141.413 238.962,146.806 L 239.04,147.195 C 240.118,152.588 243.926,160.376 247.501,164.501 C 251.076,168.626 256.026,172.901 258.501,174.001 C 260.976,175.101 264.351,176.676 266.001,177.501 C 267.651,178.326 273.469,179.54 278.929,180.199 L 279.656,180.287 C 285.116,180.946 290.246,177.034 291.054,171.594 L 304.039,84.237 z" id="path97" style="fill:url(#SVGID_4_)"/>
	<path d="M 304.039,84.237 C 304.848,78.797 301.795,73.368 297.255,72.173 C 292.715,70.978 287.65,70.45 286,71 C 284.35,71.55 280.697,74.117 277.883,76.704 C 275.069,79.292 270.793,83.117 268.383,85.204 C 265.973,87.292 262.248,91.267 260.106,94.039 C 257.964,96.811 253.318,102.524 249.781,106.736 L 248.432,108.342 C 244.895,112.554 240.958,120.377 239.684,125.728 L 239.317,127.272 C 238.043,132.623 237.883,141.413 238.962,146.806 L 239.04,147.195 C 240.118,152.588 243.926,160.376 247.501,164.501 C 251.076,168.626 256.026,172.901 258.501,174.001 C 260.976,175.101 264.351,176.676 266.001,177.501 C 267.651,178.326 273.469,179.54 278.929,180.199 L 279.656,180.287 C 285.116,180.946 290.246,177.034 291.054,171.594 L 304.039,84.237 z" id="path99" style="fill:none;stroke:#000000;stroke-linecap:round;stroke-linejoin:round"/>
</g>
<g id="g101">
	<path d="M 294.5,174 C 296.975,171.25 300.8,165.4 303,161 C 305.2,156.6 308.092,148.634 309.426,143.299 L 309.574,142.701 C 310.908,137.366 312.427,128.52 312.948,123.045 L 313.052,121.955 C 313.573,116.479 313.776,107.725 313.5,102.5 C 313.224,97.275 311.875,89.85 310.5,86 C 309.125,82.15 306.2,77.425 304,75.5 C 301.8,73.575 297.975,72.225 295.5,72.5 C 293.025,72.775 288.975,75.25 286.5,78 C 284.025,80.75 280.2,86.6 278,91 C 275.8,95.4 272.764,103.327 271.253,108.615 L 270.747,110.385 C 269.236,115.674 267.593,124.482 267.095,129.959 L 266.906,132.041 C 266.408,137.519 266.225,146.275 266.501,151.5 C 266.776,156.725 268.351,164.15 270.001,168 C 271.651,171.85 274.576,176.35 276.501,178 C 278.426,179.65 282.251,180.55 285.001,180 C 287.751,179.45 292.025,176.75 294.5,174 z" id="path103" style="fill:#cc0000"/>
	<path d="M 294.5,174 C 296.975,171.25 300.8,165.4 303,161 C 305.2,156.6 308.092,148.634 309.426,143.299 L 309.574,142.701 C 310.908,137.366 312.427,128.52 312.948,123.045 L 313.052,121.955 C 313.573,116.479 313.776,107.725 313.5,102.5 C 313.224,97.275 311.875,89.85 310.5,86 C 309.125,82.15 306.2,77.425 304,75.5 C 301.8,73.575 297.975,72.225 295.5,72.5 C 293.025,72.775 288.975,75.25 286.5,78 C 284.025,80.75 280.2,86.6 278,91 C 275.8,95.4 272.764,103.327 271.253,108.615 L 270.747,110.385 C 269.236,115.674 267.593,124.482 267.095,129.959 L 266.906,132.041 C 266.408,137.519 266.225,146.275 266.501,151.5 C 266.776,156.725 268.351,164.15 270.001,168 C 271.651,171.85 274.576,176.35 276.501,178 C 278.426,179.65 282.251,180.55 285.001,180 C 287.751,179.45 292.025,176.75 294.5,174 z" id="path105" style="fill:none;stroke:#000000;stroke-linecap:round;stroke-linejoin:round"/>
</g>
<g id="g107">
	<linearGradient x1="243.3604" y1="246.10741" x2="149.6678" y2="134.44901" id="SVGID_5_" gradientUnits="userSpaceOnUse">
		<stop id="stop110" style="stop-color:#cc0000;stop-opacity:1" offset="0.55489999"/>
		<stop id="stop112" style="stop-color:#ff0000;stop-opacity:1" offset="0.7033"/>
		<stop id="stop114" style="stop-color:#cc0000;stop-opacity:1" offset="0.86809999"/>
	</linearGradient>
	<path d="M 137.1,155.454 C 134.52,150.597 136.357,144.463 141.183,141.823 L 141.227,141.799 C 146.053,139.159 150.451,136.775 151,136.5 C 151.549,136.225 156.5,136 162,136 L 164,136 C 169.5,136 178.267,137.43 183.481,139.179 L 188.523,140.869 C 193.738,142.618 199.353,144.487 201.002,145.024 C 202.651,145.561 207.861,148.311 212.581,151.134 L 214.917,152.531 C 219.637,155.354 226.311,159.315 229.749,161.333 C 233.187,163.35 239.552,167.763 243.894,171.14 L 246.107,172.861 C 250.449,176.238 255.525,183.235 257.387,188.41 L 259.614,194.592 C 261.476,199.767 261.624,208.285 259.94,213.522 L 257.061,222.481 C 255.377,227.717 250.901,235.264 247.113,239.252 L 241.888,244.752 C 238.1,248.739 233.875,253.352 232.5,255.002 C 231.125,256.652 226.202,260.415 221.56,263.364 L 209.696,270.903 C 205.053,273.852 199.145,272.291 196.565,267.433 L 137.1,155.454 z" id="path116" style="fill:url(#SVGID_5_)"/>
	<path d="M 137.1,155.454 C 134.52,150.597 136.357,144.463 141.183,141.823 L 141.227,141.799 C 146.053,139.159 150.451,136.775 151,136.5 C 151.549,136.225 156.5,136 162,136 L 164,136 C 169.5,136 178.267,137.43 183.481,139.179 L 188.523,140.869 C 193.738,142.618 199.353,144.487 201.002,145.024 C 202.651,145.561 207.861,148.311 212.581,151.134 L 214.917,152.531 C 219.637,155.354 226.311,159.315 229.749,161.333 C 233.187,163.35 239.552,167.763 243.894,171.14 L 246.107,172.861 C 250.449,176.238 255.525,183.235 257.387,188.41 L 259.614,194.592 C 261.476,199.767 261.624,208.285 259.94,213.522 L 257.061,222.481 C 255.377,227.717 250.901,235.264 247.113,239.252 L 241.888,244.752 C 238.1,248.739 233.875,253.352 232.5,255.002 C 231.125,256.652 226.202,260.415 221.56,263.364 L 209.696,270.903 C 205.053,273.852 199.145,272.291 196.565,267.433 L 137.1,155.454 z" id="path118" style="fill:none;stroke:#000000;stroke-linecap:round;stroke-linejoin:round"/>
</g>
<g id="g120">
	<path d="M 222.932,258.949 C 219.67,263.377 213.014,269.088 208.142,271.639 L 204.859,273.36 C 199.986,275.912 191.5,278 186,278 L 181,278 C 175.5,278 166.822,276.329 161.715,274.286 L 155.284,271.714 C 150.178,269.671 142.737,264.901 138.749,261.112 L 133.249,255.887 C 129.262,252.099 123.8,245.073 121.113,240.275 L 116.885,232.724 C 114.197,227.926 111.023,219.607 109.829,214.238 L 108.168,206.761 C 106.975,201.392 106.881,192.586 107.96,187.194 L 109.038,181.805 C 110.117,176.412 113.368,168.173 116.263,163.496 L 118.736,159.502 C 121.631,154.825 127.986,148.911 132.858,146.359 L 136.141,144.639 C 141.013,142.087 149.496,139.819 154.992,139.599 L 160.008,139.399 C 165.504,139.179 174.234,140.524 179.409,142.386 L 185.592,144.612 C 190.767,146.475 198.33,151.027 202.4,154.726 L 209.601,161.273 C 213.67,164.972 219.316,171.858 222.145,176.575 L 226.856,184.425 C 229.685,189.142 232.765,197.435 233.7,202.855 L 235.302,212.146 C 236.237,217.566 235.99,226.385 234.752,231.745 L 233.25,238.257 C 232.013,243.616 228.331,251.624 225.069,256.052 L 222.932,258.949 z" id="path122" style="fill:#cc0000"/>
	<path d="M 222.932,258.949 C 219.67,263.377 213.014,269.088 208.142,271.639 L 204.859,273.36 C 199.986,275.912 191.5,278 186,278 L 181,278 C 175.5,278 166.822,276.329 161.715,274.286 L 155.284,271.714 C 150.178,269.671 142.737,264.901 138.749,261.112 L 133.249,255.887 C 129.262,252.099 123.8,245.073 121.113,240.275 L 116.885,232.724 C 114.197,227.926 111.023,219.607 109.829,214.238 L 108.168,206.761 C 106.975,201.392 106.881,192.586 107.96,187.194 L 109.038,181.805 C 110.117,176.412 113.368,168.173 116.263,163.496 L 118.736,159.502 C 121.631,154.825 127.986,148.911 132.858,146.359 L 136.141,144.639 C 141.013,142.087 149.496,139.819 154.992,139.599 L 160.008,139.399 C 165.504,139.179 174.234,140.524 179.409,142.386 L 185.592,144.612 C 190.767,146.475 198.33,151.027 202.4,154.726 L 209.601,161.273 C 213.67,164.972 219.316,171.858 222.145,176.575 L 226.856,184.425 C 229.685,189.142 232.765,197.435 233.7,202.855 L 235.302,212.146 C 236.237,217.566 235.99,226.385 234.752,231.745 L 233.25,238.257 C 232.013,243.616 228.331,251.624 225.069,256.052 L 222.932,258.949 z" id="path124" style="fill:none;stroke:#000000;stroke-linecap:round;stroke-linejoin:round"/>
</g>
<g id="g126">
	<polygon points="126,19 138.999,19 144.999,21 138.999,24 126,24 119,22 126,19 " id="polygon128" style="fill:#cc0000;stroke:#000000;stroke-linecap:round;stroke-linejoin:round"/>
	<polygon points="138.999,42.79 126,43 126,24 138.999,24 138.999,42.79 " id="polygon130" style="fill:#cc0000;stroke:#000000;stroke-linecap:round;stroke-linejoin:round"/>
	<polygon points="126,43 119.053,40.675 119,22 126,24 126,43 " id="polygon132" style="fill:#cc0000;stroke:#000000;stroke-linecap:round;stroke-linejoin:round"/>
	<polygon points="144.999,41 138.999,42.79 138.999,24 144.999,21 144.999,41 " id="polygon134" style="fill:#cc0000;stroke:#000000;stroke-linecap:round;stroke-linejoin:round"/>
</g>
<g id="g136">
	<polygon points="289,19 301.999,19 307.999,21 301.999,24 289,24 282,22 289,19 " id="polygon138" style="fill:#cc0000;stroke:#000000;stroke-linecap:round;stroke-linejoin:round"/>
	<polygon points="301.999,42.789 289,43 289,24 301.999,24 301.999,42.789 " id="polygon140" style="fill:#cc0000;stroke:#000000;stroke-linecap:round;stroke-linejoin:round"/>
	<polygon points="289,43 282.053,40.675 282,22 289,24 289,43 " id="polygon142" style="fill:#cc0000;stroke:#000000;stroke-linecap:round;stroke-linejoin:round"/>
	<polygon points="307.999,41 301.999,42.789 301.999,24 307.999,21 307.999,41 " id="polygon144" style="fill:#cc0000;stroke:#000000;stroke-linecap:round;stroke-linejoin:round"/>
</g>
<g id="g146">
	<linearGradient x1="292.28119" y1="179.666" x2="310.77841" y2="74.763298" id="SVGID_6_" gradientUnits="userSpaceOnUse">
		<stop id="stop149" style="stop-color:#cc0000;stop-opacity:1" offset="0.55489999"/>
		<stop id="stop151" style="stop-color:#ff0000;stop-opacity:1" offset="0.7033"/>
		<stop id="stop153" style="stop-color:#cc0000;stop-opacity:1" offset="0.86809999"/>
	</linearGradient>
	<path d="M 327.482,168.44 C 326.535,173.858 321.267,178.547 315.776,178.861 L 300.743,179.72 C 295.252,180.033 286.989,179.1 282.38,177.645 C 277.771,176.19 272.875,172.075 271.5,168.499 C 270.125,164.923 268.552,157.521 268.005,152.049 L 267.995,151.949 C 267.448,146.476 267.407,137.517 267.905,132.04 L 268.094,129.958 C 268.592,124.48 270.292,115.689 271.872,110.421 L 272.126,109.577 C 273.706,104.309 276.799,96.174 278.999,91.499 C 281.199,86.824 285.249,80.974 287.999,78.499 C 290.749,76.024 295.024,73.549 297.499,72.999 C 299.974,72.449 306.106,73.837 311.127,76.083 L 332.149,85.491 C 337.17,87.738 340.502,94.008 339.554,99.426 L 327.482,168.44 z" id="path155" style="fill:url(#SVGID_6_)"/>
	<path d="M 327.482,168.44 C 326.535,173.858 321.267,178.547 315.776,178.861 L 300.743,179.72 C 295.252,180.033 286.989,179.1 282.38,177.645 C 277.771,176.19 272.875,172.075 271.5,168.499 C 270.125,164.923 268.552,157.521 268.005,152.049 L 267.995,151.949 C 267.448,146.476 267.407,137.517 267.905,132.04 L 268.094,129.958 C 268.592,124.48 270.292,115.689 271.872,110.421 L 272.126,109.577 C 273.706,104.309 276.799,96.174 278.999,91.499 C 281.199,86.824 285.249,80.974 287.999,78.499 C 290.749,76.024 295.024,73.549 297.499,72.999 C 299.974,72.449 306.106,73.837 311.127,76.083 L 332.149,85.491 C 337.17,87.738 340.502,94.008 339.554,99.426 L 327.482,168.44 z" id="path157" style="fill:none;stroke:#000000;stroke-linecap:round;stroke-linejoin:round"/>
</g>
<g id="g159">
	<path d="M 335.5,162 C 333.575,165.85 330.2,170.8 328,173 C 325.8,175.2 322.425,177.45 320.5,178 C 318.575,178.55 315.65,177.875 314,176.5 C 312.35,175.125 309.875,171.3 308.5,168 C 307.125,164.7 305.775,158.4 305.5,154 C 305.225,149.6 305.45,141.725 306,136.5 C 306.55,131.275 308.125,122.95 309.5,118 C 310.875,113.05 313.575,105.85 315.5,102 C 317.425,98.15 320.575,93.2 322.5,91 C 324.425,88.8 327.8,86.775 330,86.5 C 332.2,86.225 335.35,87.125 337,88.5 C 338.65,89.875 340.9,93.7 342,97 C 343.1,100.3 344.225,106.825 344.5,111.5 C 344.775,116.175 344.55,123.825 344,128.5 C 343.45,133.175 342.1,141.05 341,146 C 339.9,150.95 337.425,158.15 335.5,162 z" id="path161" style="fill:#cc0000"/>
	<path d="M 335.5,162 C 333.575,165.85 330.2,170.8 328,173 C 325.8,175.2 322.425,177.45 320.5,178 C 318.575,178.55 315.65,177.875 314,176.5 C 312.35,175.125 309.875,171.3 308.5,168 C 307.125,164.7 305.775,158.4 305.5,154 C 305.225,149.6 305.45,141.725 306,136.5 C 306.55,131.275 308.125,122.95 309.5,118 C 310.875,113.05 313.575,105.85 315.5,102 C 317.425,98.15 320.575,93.2 322.5,91 C 324.425,88.8 327.8,86.775 330,86.5 C 332.2,86.225 335.35,87.125 337,88.5 C 338.65,89.875 340.9,93.7 342,97 C 343.1,100.3 344.225,106.825 344.5,111.5 C 344.775,116.175 344.55,123.825 344,128.5 C 343.45,133.175 342.1,141.05 341,146 C 339.9,150.95 337.425,158.15 335.5,162 z" id="path163" style="fill:none;stroke:#000000;stroke-linecap:round;stroke-linejoin:round"/>
</g>
<g id="g165">
	<linearGradient x1="320.3389" y1="169.2373" x2="333.30219" y2="95.718597" id="SVGID_7_" gradientUnits="userSpaceOnUse">
		<stop id="stop168" style="stop-color:#cc0000;stop-opacity:1" offset="0.55489999"/>
		<stop id="stop170" style="stop-color:#ff0000;stop-opacity:1" offset="0.7033"/>
		<stop id="stop172" style="stop-color:#cc0000;stop-opacity:1" offset="0.86809999"/>
	</linearGradient>
	<path d="M 337.73,162.15 C 336.778,167.567 332.174,171.325 327.5,170.5 C 322.826,169.675 317.875,168.1 316.5,167 C 315.125,165.9 313.325,162.975 312.5,160.5 C 311.675,158.025 310.775,153.075 310.5,149.5 C 310.225,145.925 310.225,139.625 310.5,135.5 C 310.775,131.375 311.9,124.85 313,121 C 314.1,117.15 316.125,111.525 317.5,108.5 C 318.875,105.475 321.35,101.65 323,100 C 324.65,98.35 327.35,96.775 329,96.5 C 330.65,96.225 335.825,96.45 340.5,97 C 345.175,97.55 348.222,102.432 347.27,107.849 L 337.73,162.15 z" id="path174" style="fill:url(#SVGID_7_)"/>
	<path d="M 337.73,162.15 C 336.778,167.567 332.174,171.325 327.5,170.5 C 322.826,169.675 317.875,168.1 316.5,167 C 315.125,165.9 313.325,162.975 312.5,160.5 C 311.675,158.025 310.775,153.075 310.5,149.5 C 310.225,145.925 310.225,139.625 310.5,135.5 C 310.775,131.375 311.9,124.85 313,121 C 314.1,117.15 316.125,111.525 317.5,108.5 C 318.875,105.475 321.35,101.65 323,100 C 324.65,98.35 327.35,96.775 329,96.5 C 330.65,96.225 335.825,96.45 340.5,97 C 345.175,97.55 348.222,102.432 347.27,107.849 L 337.73,162.15 z" id="path176" style="fill:none;stroke:#000000"/>
</g>
<g id="g178">
	<path d="M 340,102.5 C 341.65,100.575 344.35,98.775 346,98.5 C 347.65,98.225 350.125,99.125 351.5,100.5 C 352.875,101.875 354.675,105.025 355.5,107.5 C 356.325,109.975 357.225,114.925 357.5,118.5 C 357.775,122.075 357.55,128.15 357,132 C 356.45,135.85 355.325,142.15 354.5,146 C 353.675,149.85 351.875,155.475 350.5,158.5 C 349.125,161.525 346.65,165.35 345,167 C 343.35,168.65 340.65,170.45 339,171 C 337.35,171.55 334.875,171.1 333.5,170 C 332.125,168.9 330.325,165.75 329.5,163 C 328.675,160.25 327.775,155.075 327.5,151.5 C 327.225,147.925 327.225,141.85 327.5,138 C 327.775,134.15 328.9,127.85 330,124 C 331.1,120.15 333.125,114.525 334.5,111.5 C 335.875,108.475 338.35,104.425 340,102.5 z" id="path180" style="fill:#cc0000"/>
	<path d="M 340,102.5 C 341.65,100.575 344.35,98.775 346,98.5 C 347.65,98.225 350.125,99.125 351.5,100.5 C 352.875,101.875 354.675,105.025 355.5,107.5 C 356.325,109.975 357.225,114.925 357.5,118.5 C 357.775,122.075 357.55,128.15 357,132 C 356.45,135.85 355.325,142.15 354.5,146 C 353.675,149.85 351.875,155.475 350.5,158.5 C 349.125,161.525 346.65,165.35 345,167 C 343.35,168.65 340.65,170.45 339,171 C 337.35,171.55 334.875,171.1 333.5,170 C 332.125,168.9 330.325,165.75 329.5,163 C 328.675,160.25 327.775,155.075 327.5,151.5 C 327.225,147.925 327.225,141.85 327.5,138 C 327.775,134.15 328.9,127.85 330,124 C 331.1,120.15 333.125,114.525 334.5,111.5 C 335.875,108.475 338.35,104.425 340,102.5 z" id="path182" style="fill:none;stroke:#000000;stroke-linecap:round;stroke-linejoin:round"/>
</g>
<g id="g184">
	<linearGradient x1="217.8643" y1="264.55859" x2="124.0342" y2="152.7363" id="SVGID_8_" gradientUnits="userSpaceOnUse">
		<stop id="stop187" style="stop-color:#cc0000;stop-opacity:1" offset="0.55489999"/>
		<stop id="stop189" style="stop-color:#ff0000;stop-opacity:1" offset="0.7033"/>
		<stop id="stop191" style="stop-color:#cc0000;stop-opacity:1" offset="0.86809999"/>
	</linearGradient>
	<path d="M 184.078,280.246 C 189.535,279.56 198.025,276.987 202.944,274.528 L 207.055,272.471 C 211.974,270.012 218.579,264.313 221.734,259.807 L 224.265,256.192 C 227.419,251.686 231.011,243.615 232.248,238.255 L 233.75,231.743 C 234.987,226.384 235.208,217.569 234.241,212.154 L 232.757,203.843 C 231.79,198.428 228.75,190.101 226.002,185.336 L 220.996,176.66 C 218.248,171.895 212.594,165.056 208.431,161.462 L 201.568,155.534 C 197.405,151.939 189.821,147.326 184.715,145.284 L 178.284,142.712 C 173.178,140.67 164.503,139.178 159.007,139.398 L 153.991,139.598 C 148.495,139.818 140.092,142.23 135.316,144.959 L 131.681,147.036 C 126.906,149.765 120.412,155.68 117.251,160.181 L 106.322,175.743 C 103.161,180.244 102.692,187.897 105.28,192.751 L 149.243,275.205 C 151.83,280.059 158.412,283.469 163.869,282.783 L 184.078,280.246 z" id="path193" style="fill:url(#SVGID_8_)"/>
	<path d="M 184.078,280.246 C 189.535,279.56 198.025,276.987 202.944,274.528 L 207.055,272.471 C 211.974,270.012 218.579,264.313 221.734,259.807 L 224.265,256.192 C 227.419,251.686 231.011,243.615 232.248,238.255 L 233.75,231.743 C 234.987,226.384 235.208,217.569 234.241,212.154 L 232.757,203.843 C 231.79,198.428 228.75,190.101 226.002,185.336 L 220.996,176.66 C 218.248,171.895 212.594,165.056 208.431,161.462 L 201.568,155.534 C 197.405,151.939 189.821,147.326 184.715,145.284 L 178.284,142.712 C 173.178,140.67 164.503,139.178 159.007,139.398 L 153.991,139.598 C 148.495,139.818 140.092,142.23 135.316,144.959 L 131.681,147.036 C 126.906,149.765 120.412,155.68 117.251,160.181 L 106.322,175.743 C 103.161,180.244 102.692,187.897 105.28,192.751 L 149.243,275.205 C 151.83,280.059 158.412,283.469 163.869,282.783 L 184.078,280.246 z" id="path195" style="fill:none;stroke:#000000;stroke-linecap:round;stroke-linejoin:round"/>
</g>
<g id="g197">
	<path d="M 137.01,163.454 C 142.505,163.204 151.229,164.538 156.398,166.417 L 159.602,167.583 C 164.771,169.462 172.271,174.09 176.27,177.866 L 179.73,181.134 C 183.729,184.91 189.289,191.874 192.087,196.61 L 194.912,201.391 C 197.71,206.126 200.71,214.444 201.579,219.874 L 202.419,225.126 C 203.288,230.557 203.194,239.428 202.21,244.839 L 201.788,247.161 C 200.804,252.572 197.266,260.574 193.924,264.943 L 193.073,266.056 C 189.732,270.425 182.973,276.012 178.054,278.471 L 177.943,278.528 C 173.025,280.987 164.5,283 159,283 L 158,283 C 152.5,283 143.795,281.398 138.655,279.44 L 136.344,278.559 C 131.204,276.601 123.728,271.91 119.729,268.133 L 116.269,264.865 C 112.27,261.089 106.767,254.092 104.038,249.316 L 101.961,245.681 C 99.232,240.906 96.082,232.593 94.96,227.208 L 94.039,222.788 C 92.917,217.403 92.805,208.57 93.789,203.159 L 94.211,200.837 C 95.195,195.426 98.445,187.22 101.433,182.603 L 101.568,182.394 C 104.556,177.777 110.934,171.813 115.742,169.142 L 116.259,168.855 C 121.067,166.184 129.496,163.794 134.99,163.544 L 137.01,163.454 z" id="path199" style="fill:#cc0000"/>
	<path d="M 137.01,163.454 C 142.505,163.204 151.229,164.538 156.398,166.417 L 159.602,167.583 C 164.771,169.462 172.271,174.09 176.27,177.866 L 179.73,181.134 C 183.729,184.91 189.289,191.874 192.087,196.61 L 194.912,201.391 C 197.71,206.126 200.71,214.444 201.579,219.874 L 202.419,225.126 C 203.288,230.557 203.194,239.428 202.21,244.839 L 201.788,247.161 C 200.804,252.572 197.266,260.574 193.924,264.943 L 193.073,266.056 C 189.732,270.425 182.973,276.012 178.054,278.471 L 177.943,278.528 C 173.025,280.987 164.5,283 159,283 L 158,283 C 152.5,283 143.795,281.398 138.655,279.44 L 136.344,278.559 C 131.204,276.601 123.728,271.91 119.729,268.133 L 116.269,264.865 C 112.27,261.089 106.767,254.092 104.038,249.316 L 101.961,245.681 C 99.232,240.906 96.082,232.593 94.96,227.208 L 94.039,222.788 C 92.917,217.403 92.805,208.57 93.789,203.159 L 94.211,200.837 C 95.195,195.426 98.445,187.22 101.433,182.603 L 101.568,182.394 C 104.556,177.777 110.934,171.813 115.742,169.142 L 116.259,168.855 C 121.067,166.184 129.496,163.794 134.99,163.544 L 137.01,163.454 z" id="path201" style="fill:none;stroke:#000000;stroke-linecap:round;stroke-linejoin:round"/>
</g>
<polygon points="356,135 338,132 343,122 361,125 356,135 " id="polygon203" style="fill:#ff0000;stroke:#000000;stroke-linecap:round;stroke-linejoin:round"/>
<polygon points="356,148 338,144 338,132 356,135 356,148 " id="polygon205" style="fill:#cc0000;stroke:#000000;stroke-linecap:round;stroke-linejoin:round"/>
<polygon points="361,151 342.882,147.326 338,144 356,148 361,151 " id="polygon207" style="fill:#cc0000;stroke:#000000;stroke-linecap:round;stroke-linejoin:round"/>
<polygon points="361,125 366,129 365,141 361,151 356,148 356,135 361,125 " id="polygon209" style="fill:#cc0000;stroke:#000000;stroke-linecap:round;stroke-linejoin:round"/>
<g id="g211">
	<linearGradient x1="174.2207" y1="249.209" x2="125.6695" y2="191.3479" id="SVGID_9_" gradientUnits="userSpaceOnUse">
		<stop id="stop214" style="stop-color:#cc0000;stop-opacity:1" offset="0.55489999"/>
		<stop id="stop216" style="stop-color:#ff0000;stop-opacity:1" offset="0.7033"/>
		<stop id="stop218" style="stop-color:#cc0000;stop-opacity:1" offset="0.86809999"/>
	</linearGradient>
	<path d="M 118.932,208.699 C 116.219,203.915 116.25,198.65 119,197 C 121.75,195.35 126.25,192.65 129,191 C 131.75,189.35 136.925,188 140.5,188 C 144.075,188 149.925,189.125 153.5,190.5 C 157.075,191.875 162.475,195.25 165.5,198 C 168.525,200.75 172.575,205.925 174.5,209.5 C 176.425,213.075 178.675,219.15 179.5,223 C 180.325,226.85 180.325,232.925 179.5,236.5 C 178.675,240.075 176.425,245.25 174.5,248 C 172.575,250.75 167.208,255.423 162.573,258.383 L 159.64,260.257 C 155.005,263.217 148.994,261.725 146.281,256.941 L 118.932,208.699 z" id="path220" style="fill:url(#SVGID_9_)"/>
	<path d="M 118.932,208.699 C 116.219,203.915 116.25,198.65 119,197 C 121.75,195.35 126.25,192.65 129,191 C 131.75,189.35 136.925,188 140.5,188 C 144.075,188 149.925,189.125 153.5,190.5 C 157.075,191.875 162.475,195.25 165.5,198 C 168.525,200.75 172.575,205.925 174.5,209.5 C 176.425,213.075 178.675,219.15 179.5,223 C 180.325,226.85 180.325,232.925 179.5,236.5 C 178.675,240.075 176.425,245.25 174.5,248 C 172.575,250.75 167.208,255.423 162.573,258.383 L 159.64,260.257 C 155.005,263.217 148.994,261.725 146.281,256.941 L 118.932,208.699 z" id="path222" style="fill:none;stroke:#000000;stroke-linecap:round;stroke-linejoin:round"/>
</g>
<g id="g224">
	<path d="M 119.5,197 C 122.525,195.35 127.7,194 131,194 C 134.3,194 139.925,195.125 143.5,196.5 C 147.075,197.875 152.475,201.25 155.5,204 C 158.525,206.75 162.8,211.925 165,215.5 C 167.2,219.075 169.45,225.15 170,229 C 170.55,232.85 170.55,238.925 170,242.5 C 169.45,246.075 167.425,251.475 165.5,254.5 C 163.575,257.525 159.525,261.125 156.5,262.5 C 153.475,263.875 148.075,265 144.5,265 C 140.925,265 135.3,263.875 132,262.5 C 128.7,261.125 123.525,257.75 120.5,255 C 117.475,252.25 113.425,247.075 111.5,243.5 C 109.575,239.925 107.325,233.85 106.5,230 C 105.675,226.15 105.45,220.075 106,216.5 C 106.55,212.925 108.575,207.75 110.5,205 C 112.425,202.25 116.475,198.65 119.5,197 z" id="path226" style="fill:#cc0000"/>
	<path d="M 119.5,197 C 122.525,195.35 127.7,194 131,194 C 134.3,194 139.925,195.125 143.5,196.5 C 147.075,197.875 152.475,201.25 155.5,204 C 158.525,206.75 162.8,211.925 165,215.5 C 167.2,219.075 169.45,225.15 170,229 C 170.55,232.85 170.55,238.925 170,242.5 C 169.45,246.075 167.425,251.475 165.5,254.5 C 163.575,257.525 159.525,261.125 156.5,262.5 C 153.475,263.875 148.075,265 144.5,265 C 140.925,265 135.3,263.875 132,262.5 C 128.7,261.125 123.525,257.75 120.5,255 C 117.475,252.25 113.425,247.075 111.5,243.5 C 109.575,239.925 107.325,233.85 106.5,230 C 105.675,226.15 105.45,220.075 106,216.5 C 106.55,212.925 108.575,207.75 110.5,205 C 112.425,202.25 116.475,198.65 119.5,197 z" id="path228" style="fill:none;stroke:#000000;stroke-linecap:round;stroke-linejoin:round"/>
</g>
<polygon points="127,223 117,228 128.316,221.245 138,217 127,223 " id="polygon230" style="fill:#cc0000;stroke:#000000;stroke-linecap:round;stroke-linejoin:round"/>
<polygon points="138,232 127,223 138,217 148,225 138,232 " id="polygon232" style="fill:#ff0000;stroke:#000000;stroke-linecap:round;stroke-linejoin:round"/>
<polygon points="148,238 138,245 138,232 148,225 148,238 " id="polygon234" style="fill:#cc0000;stroke:#000000;stroke-linecap:round;stroke-linejoin:round"/>
<polygon points="127,223 138,232 138,245 128,249 117,241 117,228 127,223 " id="polygon236" style="fill:#cc0000;stroke:#000000;stroke-linecap:round;stroke-linejoin:round"/>
<g id="g238">
	<polygon points="209,31.999 221.999,31.999 227.999,33.999 221.999,36.999 209,36.999 202,34.999 209,31.999 " id="polygon240" style="fill:#cc0000;stroke:#000000;stroke-linecap:round;stroke-linejoin:round"/>
	<polygon points="221.999,55.789 209,56 209,36.999 221.999,36.999 221.999,55.789 " id="polygon242" style="fill:#cc0000;stroke:#000000;stroke-linecap:round;stroke-linejoin:round"/>
	<polygon points="209,56 202.053,53.674 202,34.999 209,36.999 209,56 " id="polygon244" style="fill:#cc0000;stroke:#000000;stroke-linecap:round;stroke-linejoin:round"/>
	<polygon points="227.999,54 221.999,55.789 221.999,36.999 227.999,33.999 227.999,54 " id="polygon246" style="fill:#cc0000;stroke:#000000;stroke-linecap:round;stroke-linejoin:round"/>
</g>
<g id="g248">
	<path d="M 311,-32.473 C 316.5,-32.49 320.911,-28.005 320.802,-22.506 L 320.198,8.001 C 320.089,13.501 317.75,20.475 315,23.5 C 312.25,26.525 305.748,30.472 300.55,32.271 L 293.45,34.729 C 288.252,36.528 279.538,38.587 274.086,39.305 L 255.914,41.696 C 250.462,42.414 241.501,43.103 236.003,43.228 L 211.997,43.774 C 206.499,43.899 197.511,43.688 192.024,43.305 L 168.975,41.697 C 163.489,41.314 154.598,40.068 149.217,38.926 L 135.781,36.076 C 130.401,34.934 122.065,31.815 117.257,29.144 L 116.74,28.857 C 111.932,26.186 107.323,21.525 106.498,18.501 C 105.673,15.477 105,8.5 105,3 L 105,-21.834 C 105,-27.334 109.5,-31.848 115,-31.865 L 311,-32.473 z" id="path250" style="fill:#cc0000"/>
	<path d="M 311,-32.473 C 316.5,-32.49 320.911,-28.005 320.802,-22.506 L 320.198,8.001 C 320.089,13.501 317.75,20.475 315,23.5 C 312.25,26.525 305.748,30.472 300.55,32.271 L 293.45,34.729 C 288.252,36.528 279.538,38.587 274.086,39.305 L 255.914,41.696 C 250.462,42.414 241.501,43.103 236.003,43.228 L 211.997,43.774 C 206.499,43.899 197.511,43.688 192.024,43.305 L 168.975,41.697 C 163.489,41.314 154.598,40.068 149.217,38.926 L 135.781,36.076 C 130.401,34.934 122.065,31.815 117.257,29.144 L 116.74,28.857 C 111.932,26.186 107.323,21.525 106.498,18.501 C 105.673,15.477 105,8.5 105,3 L 105,-21.834 C 105,-27.334 109.5,-31.848 115,-31.865 L 311,-32.473 z" id="path252" style="fill:none;stroke:#000000;stroke-linecap:round;stroke-linejoin:round"/>
</g>
<g id="g254">
	<path d="M 106,-24 C 105.45,-26.75 108.15,-31.025 112,-33.5 C 115.85,-35.975 123.314,-39.278 128.588,-40.841 L 136.412,-43.159 C 141.685,-44.721 150.473,-46.497 155.939,-47.104 L 172.061,-48.895 C 177.527,-49.502 186.499,-50.112 191.997,-50.249 L 212.003,-50.749 C 217.501,-50.887 226.486,-50.654 231.971,-50.232 L 251.03,-48.766 C 256.514,-48.344 265.424,-47.17 270.83,-46.156 L 283.172,-43.842 C 288.578,-42.828 297.206,-40.397 302.346,-38.439 L 304.657,-37.559 C 309.797,-35.601 315.577,-31.749 317.502,-28.999 C 319.427,-26.249 318.527,-21.749 315.502,-18.999 C 312.477,-16.249 305.701,-12.676 300.444,-11.058 L 293.559,-8.94 C 288.302,-7.322 279.539,-5.412 274.087,-4.694 L 255.915,-2.303 C 250.463,-1.585 241.502,-0.896 236.004,-0.771 L 211.998,-0.225 C 206.5,-0.1 197.512,-0.311 192.025,-0.694 L 168.976,-2.302 C 163.49,-2.685 154.599,-3.931 149.218,-5.073 L 135.782,-7.923 C 130.402,-9.065 121.933,-11.924 116.963,-14.279 L 116.038,-14.717 C 111.067,-17.074 106.55,-21.25 106,-24 z" id="path256" style="fill:#ff0000"/>
	<path d="M 106,-24 C 105.45,-26.75 108.15,-31.025 112,-33.5 C 115.85,-35.975 123.314,-39.278 128.588,-40.841 L 136.412,-43.159 C 141.685,-44.721 150.473,-46.497 155.939,-47.104 L 172.061,-48.895 C 177.527,-49.502 186.499,-50.112 191.997,-50.249 L 212.003,-50.749 C 217.501,-50.887 226.486,-50.654 231.971,-50.232 L 251.03,-48.766 C 256.514,-48.344 265.424,-47.17 270.83,-46.156 L 283.172,-43.842 C 288.578,-42.828 297.206,-40.397 302.346,-38.439 L 304.657,-37.559 C 309.797,-35.601 315.577,-31.749 317.502,-28.999 C 319.427,-26.249 318.527,-21.749 315.502,-18.999 C 312.477,-16.249 305.701,-12.676 300.444,-11.058 L 293.559,-8.94 C 288.302,-7.322 279.539,-5.412 274.087,-4.694 L 255.915,-2.303 C 250.463,-1.585 241.502,-0.896 236.004,-0.771 L 211.998,-0.225 C 206.5,-0.1 197.512,-0.311 192.025,-0.694 L 168.976,-2.302 C 163.49,-2.685 154.599,-3.931 149.218,-5.073 L 135.782,-7.923 C 130.402,-9.065 121.933,-11.924 116.963,-14.279 L 116.038,-14.717 C 111.067,-17.074 106.55,-21.25 106,-24 z" id="path258" style="fill:none;stroke:#000000;stroke-linecap:round;stroke-linejoin:round"/>
</g>
<g id="g260">
	<path d="M 243.5,-137.5 C 243.775,-135.575 243.1,-133.55 242,-133 C 240.9,-132.45 238.425,-131.55 236.5,-131 C 234.575,-130.45 230.525,-129.775 227.5,-129.5 C 224.475,-129.225 219.075,-129 215.5,-129 C 211.925,-129 206.525,-129 203.5,-129 C 200.475,-129 195.75,-129.45 193,-130 C 190.25,-130.55 186.65,-131.45 185,-132 C 183.35,-132.55 181.775,-133.45 181.5,-134 C 181.225,-134.55 181.225,-136.575 181.5,-138.5 C 181.775,-140.425 186.5,-141.926 191.999,-141.836 L 233.001,-141.164 C 238.501,-141.074 243.225,-139.425 243.5,-137.5 z" id="path262" style="fill:#cc0000"/>
	<path d="M 243.5,-137.5 C 243.775,-135.575 243.1,-133.55 242,-133 C 240.9,-132.45 238.425,-131.55 236.5,-131 C 234.575,-130.45 230.525,-129.775 227.5,-129.5 C 224.475,-129.225 219.075,-129 215.5,-129 C 211.925,-129 206.525,-129 203.5,-129 C 200.475,-129 195.75,-129.45 193,-130 C 190.25,-130.55 186.65,-131.45 185,-132 C 183.35,-132.55 181.775,-133.45 181.5,-134 C 181.225,-134.55 181.225,-136.575 181.5,-138.5 C 181.775,-140.425 186.5,-141.926 191.999,-141.836 L 233.001,-141.164 C 238.501,-141.074 243.225,-139.425 243.5,-137.5 z" id="path264" style="fill:none;stroke:#000000;stroke-linecap:round;stroke-linejoin:round"/>
</g>
<g id="g266">
	<polygon points="126,-52 139,-52 145,-50 139,-47 126,-47 119,-49 126,-52 " id="polygon268" style="fill:#ff0000;stroke:#000000;stroke-linecap:round;stroke-linejoin:round"/>
	<polygon points="139,-28.21 126,-28 126,-47 139,-47 139,-28.21 " id="polygon270" style="fill:#cc0000;stroke:#000000;stroke-linecap:round;stroke-linejoin:round"/>
	<polygon points="126,-28 119.053,-30.325 119,-49 126,-47 126,-28 " id="polygon272" style="fill:#cc0000;stroke:#000000;stroke-linecap:round;stroke-linejoin:round"/>
	<polygon points="145,-30 139,-28.21 139,-47 145,-50 145,-30 " id="polygon274" style="fill:#cc0000;stroke:#000000;stroke-linecap:round;stroke-linejoin:round"/>
</g>
<g id="g276">
	<polygon points="283.001,-52.79 296,-52.79 302,-50.79 296,-47.79 283.001,-47.79 276.001,-49.79 283.001,-52.79 " id="polygon278" style="fill:#ff0000;stroke:#000000;stroke-linecap:round;stroke-linejoin:round"/>
	<polygon points="296,-29 283.001,-28.79 283.001,-47.79 296,-47.79 296,-29 " id="polygon280" style="fill:#cc0000;stroke:#000000;stroke-linecap:round;stroke-linejoin:round"/>
	<polygon points="283.001,-28.79 276.054,-31.114 276.001,-49.79 283.001,-47.79 283.001,-28.79 " id="polygon282" style="fill:#cc0000;stroke:#000000;stroke-linecap:round;stroke-linejoin:round"/>
	<polygon points="302,-30.79 296,-29 296,-47.79 302,-50.79 302,-30.79 " id="polygon284" style="fill:#cc0000;stroke:#000000;stroke-linecap:round;stroke-linejoin:round"/>
</g>
<g id="g286">
	<path d="M 181.5,-134 C 181.225,-134.55 177.756,-131.881 173.792,-128.069 L 162.209,-116.931 C 158.244,-113.119 153.163,-105.892 150.917,-100.872 L 142.084,-81.128 C 139.838,-76.107 137.493,-67.529 136.872,-62.064 L 134.13,-37.936 C 133.508,-32.471 133.45,-26.425 134,-24.5 C 134.55,-22.575 138.15,-19.425 142,-17.5 C 145.85,-15.575 153.439,-13.26 158.864,-12.356 L 163.136,-11.644 C 168.561,-10.74 177.479,-9.566 182.953,-9.037 L 194.046,-7.964 C 199.521,-7.434 208.498,-7.137 213.995,-7.303 L 227.005,-7.698 C 232.502,-7.865 241.455,-8.637 246.9,-9.415 L 255.101,-10.587 C 260.545,-11.365 269.276,-13.351 274.5,-15.001 C 279.724,-16.651 285.8,-19.576 288,-21.501 C 290.2,-23.426 291.492,-29.472 290.871,-34.937 L 288.129,-59.065 C 287.508,-64.53 285.202,-73.126 283.004,-78.168 L 273.996,-98.834 C 271.798,-103.876 269.325,-108.901 268.5,-110.001 C 267.675,-111.101 263.748,-115.111 259.773,-118.913 L 251.226,-127.089 C 247.252,-130.89 243.1,-133.55 242,-133 C 240.9,-132.45 238.425,-131.55 236.5,-131 C 234.575,-130.45 230.525,-129.775 227.5,-129.5 C 224.475,-129.225 219.075,-129 215.5,-129 C 211.925,-129 206.525,-129 203.5,-129 C 200.475,-129 195.75,-129.45 193,-130 C 190.25,-130.55 186.65,-131.45 185,-132 C 183.35,-132.55 181.775,-133.45 181.5,-134 z" id="path288" style="fill:#cc0000"/>
	<path d="M 181.5,-134 C 181.225,-134.55 177.756,-131.881 173.792,-128.069 L 162.209,-116.931 C 158.244,-113.119 153.163,-105.892 150.917,-100.872 L 142.084,-81.128 C 139.838,-76.107 137.493,-67.529 136.872,-62.064 L 134.13,-37.936 C 133.508,-32.471 133.45,-26.425 134,-24.5 C 134.55,-22.575 138.15,-19.425 142,-17.5 C 145.85,-15.575 153.439,-13.26 158.864,-12.356 L 163.136,-11.644 C 168.561,-10.74 177.479,-9.566 182.953,-9.037 L 194.046,-7.964 C 199.521,-7.434 208.498,-7.137 213.995,-7.303 L 227.005,-7.698 C 232.502,-7.865 241.455,-8.637 246.9,-9.415 L 255.101,-10.587 C 260.545,-11.365 269.276,-13.351 274.5,-15.001 C 279.724,-16.651 285.8,-19.576 288,-21.501 C 290.2,-23.426 291.492,-29.472 290.871,-34.937 L 288.129,-59.065 C 287.508,-64.53 285.202,-73.126 283.004,-78.168 L 273.996,-98.834 C 271.798,-103.876 269.325,-108.901 268.5,-110.001 C 267.675,-111.101 263.748,-115.111 259.773,-118.913 L 251.226,-127.089 C 247.252,-130.89 243.1,-133.55 242,-133 C 240.9,-132.45 238.425,-131.55 236.5,-131 C 234.575,-130.45 230.525,-129.775 227.5,-129.5 C 224.475,-129.225 219.075,-129 215.5,-129 C 211.925,-129 206.525,-129 203.5,-129 C 200.475,-129 195.75,-129.45 193,-130 C 190.25,-130.55 186.65,-131.45 185,-132 C 183.35,-132.55 181.775,-133.45 181.5,-134 z" id="path290" style="fill:none;stroke:#000000;stroke-linecap:round;stroke-linejoin:round"/>
</g>
<g id="g292">
	<path d="M 240,-163.612 C 245.5,-163.569 250,-159.034 250,-153.534 L 250,-150 C 250,-144.5 249.1,-139.55 248,-139 C 246.9,-138.45 243.975,-137.55 241.5,-137 C 239.025,-136.45 234.075,-135.55 230.5,-135 C 226.925,-134.45 220.625,-134 216.5,-134 C 212.375,-134 205.85,-134.225 202,-134.5 C 198.15,-134.775 192.3,-135.45 189,-136 C 185.7,-136.55 181.425,-137.45 179.5,-138 C 177.575,-138.55 175.775,-139.675 175.5,-140.5 C 175.225,-141.325 175,-146.5 175,-152 L 175,-154.118 C 175,-159.618 179.5,-164.083 185,-164.04 L 240,-163.612 z" id="path294" style="fill:#cc0000"/>
	<path d="M 240,-163.612 C 245.5,-163.569 250,-159.034 250,-153.534 L 250,-150 C 250,-144.5 249.1,-139.55 248,-139 C 246.9,-138.45 243.975,-137.55 241.5,-137 C 239.025,-136.45 234.075,-135.55 230.5,-135 C 226.925,-134.45 220.625,-134 216.5,-134 C 212.375,-134 205.85,-134.225 202,-134.5 C 198.15,-134.775 192.3,-135.45 189,-136 C 185.7,-136.55 181.425,-137.45 179.5,-138 C 177.575,-138.55 175.775,-139.675 175.5,-140.5 C 175.225,-141.325 175,-146.5 175,-152 L 175,-154.118 C 175,-159.618 179.5,-164.083 185,-164.04 L 240,-163.612 z" id="path296" style="fill:none;stroke:#000000;stroke-linecap:round;stroke-linejoin:round"/>
</g>
<g id="g298">
	<path d="M 175.5,-159.5 C 175.225,-160.325 175.9,-161.45 177,-162 C 178.1,-162.55 181.25,-163.45 184,-164 C 186.75,-164.55 191.7,-165.225 195,-165.5 C 198.3,-165.775 204.375,-166 208.5,-166 C 212.625,-166 219.15,-166 223,-166 C 226.85,-166 232.475,-165.55 235.5,-165 C 238.525,-164.45 242.8,-163.55 245,-163 C 247.2,-162.45 249.225,-161.325 249.5,-160.5 C 249.775,-159.675 249.1,-158.55 248,-158 C 246.9,-157.45 243.975,-156.55 241.5,-156 C 239.025,-155.45 234.075,-154.775 230.5,-154.5 C 226.925,-154.225 220.625,-153.775 216.5,-153.5 C 212.375,-153.225 205.625,-153.225 201.5,-153.5 C 197.375,-153.775 191.525,-154.45 188.5,-155 C 185.475,-155.55 181.425,-156.45 179.5,-157 C 177.575,-157.55 175.775,-158.675 175.5,-159.5 z" id="path300" style="fill:#ff0000"/>
	<path d="M 175.5,-159.5 C 175.225,-160.325 175.9,-161.45 177,-162 C 178.1,-162.55 181.25,-163.45 184,-164 C 186.75,-164.55 191.7,-165.225 195,-165.5 C 198.3,-165.775 204.375,-166 208.5,-166 C 212.625,-166 219.15,-166 223,-166 C 226.85,-166 232.475,-165.55 235.5,-165 C 238.525,-164.45 242.8,-163.55 245,-163 C 247.2,-162.45 249.225,-161.325 249.5,-160.5 C 249.775,-159.675 249.1,-158.55 248,-158 C 246.9,-157.45 243.975,-156.55 241.5,-156 C 239.025,-155.45 234.075,-154.775 230.5,-154.5 C 226.925,-154.225 220.625,-153.775 216.5,-153.5 C 212.375,-153.225 205.625,-153.225 201.5,-153.5 C 197.375,-153.775 191.525,-154.45 188.5,-155 C 185.475,-155.55 181.425,-156.45 179.5,-157 C 177.575,-157.55 175.775,-158.675 175.5,-159.5 z" id="path302" style="fill:none;stroke:#000000;stroke-linecap:round;stroke-linejoin:round"/>
</g>
<polygon points="206,-178 220,-178 226,-180 219,-182 205,-182 199,-180 206,-178 " id="polygon304" style="fill:#ff0000;stroke:#000000;stroke-linecap:round;stroke-linejoin:round"/>
<polygon points="206,-158 199,-160 199,-180 206,-178 206,-158 " id="polygon306" style="fill:#cc0000;stroke:#000000;stroke-linecap:round;stroke-linejoin:round"/>
<rect width="14" height="20" x="206" y="-178" id="rect308" style="fill:#cc0000;stroke:#000000;stroke-linecap:round;stroke-linejoin:round"/>
<polygon points="226,-160 220,-158 220,-178 226,-180 226,-160 " id="polygon310" style="fill:#cc0000;stroke:#000000;stroke-linecap:round;stroke-linejoin:round"/>
<g id="g312">
	<polygon points="209.001,-25.955 222,-25.955 228,-23.955 222,-20.955 209.001,-20.955 202.001,-22.955 209.001,-25.955 " id="polygon314" style="fill:#ff0000;stroke:#000000;stroke-linecap:round;stroke-linejoin:round"/>
	<polygon points="222,-2.165 209.001,-1.955 209.001,-20.955 222,-20.955 222,-2.165 " id="polygon316" style="fill:#cc0000;stroke:#000000;stroke-linecap:round;stroke-linejoin:round"/>
	<polygon points="209.001,-1.955 202.054,-4.279 202.001,-22.955 209.001,-20.955 209.001,-1.955 " id="polygon318" style="fill:#cc0000;stroke:#000000;stroke-linecap:round;stroke-linejoin:round"/>
	<polygon points="228,-3.955 222,-2.165 222,-20.955 228,-23.955 228,-3.955 " id="polygon320" style="fill:#cc0000;stroke:#000000;stroke-linecap:round;stroke-linejoin:round"/>
</g>
<g id="g322">
	<polygon points="126,-36.417 139,-36.417 145,-34.417 139,-31.417 126,-31.417 119,-33.417 126,-36.417 " id="polygon324" style="fill:#ff0000;stroke:#000000;stroke-linecap:round;stroke-linejoin:round"/>
	<polygon points="139,-12.628 126,-12.417 126,-31.417 139,-31.417 139,-12.628 " id="polygon326" style="fill:#cc0000;stroke:#000000;stroke-linecap:round;stroke-linejoin:round"/>
	<polygon points="126,-12.417 119.053,-14.742 119,-33.417 126,-31.417 126,-12.417 " id="polygon328" style="fill:#cc0000;stroke:#000000;stroke-linecap:round;stroke-linejoin:round"/>
	<polygon points="145,-14.417 139,-12.628 139,-31.417 145,-34.417 145,-14.417 " id="polygon330" style="fill:#cc0000;stroke:#000000;stroke-linecap:round;stroke-linejoin:round"/>
</g>
<g id="g332">
	<polygon points="288.636,-37.045 301.635,-37.045 307.635,-35.045 301.635,-32.045 288.636,-32.045 281.636,-34.045 288.636,-37.045 " id="polygon334" style="fill:#ff0000;stroke:#000000;stroke-linecap:round;stroke-linejoin:round"/>
	<polygon points="301.635,-13.256 288.636,-13.045 288.636,-32.045 301.635,-32.045 301.635,-13.256 " id="polygon336" style="fill:#cc0000;stroke:#000000;stroke-linecap:round;stroke-linejoin:round"/>
	<polygon points="288.636,-13.045 281.688,-15.37 281.636,-34.045 288.636,-32.045 288.636,-13.045 " id="polygon338" style="fill:#cc0000;stroke:#000000;stroke-linecap:round;stroke-linejoin:round"/>
	<polygon points="307.635,-15.045 301.635,-13.256 301.635,-32.045 307.635,-35.045 307.635,-15.045 " id="polygon340" style="fill:#cc0000;stroke:#000000;stroke-linecap:round;stroke-linejoin:round"/>
</g>
<metadata><rdf:RDF><cc:Work><dc:format>image/svg+xml</dc:format><dc:type rdf:resource="http://purl.org/dc/dcmitype/StillImage"/><cc:license rdf:resource="http://creativecommons.org/licenses/publicdomain/"/><dc:publisher><cc:Agent rdf:about="http://openclipart.org/"><dc:title>Open Clip Art Library</dc:title></cc:Agent></dc:publisher><dc:title>Fire hydrant</dc:title><dc:date>2010-07-02T17:54:14</dc:date><dc:description>A red fire hydrant.</dc:description><dc:source>http://openclipart.org/detail/69751/fire-hydrant-by-gramzon</dc:source><dc:creator><cc:Agent><dc:title>gramzon</dc:title></cc:Agent></dc:creator><dc:subject><rdf:Bag><rdf:li>burn</rdf:li><rdf:li>clip art</rdf:li><rdf:li>clipart</rdf:li><rdf:li>department</rdf:li><rdf:li>extinguish</rdf:li><rdf:li>fire</rdf:li><rdf:li>hose</rdf:li><rdf:li>hydrant</rdf:li><rdf:li>put out</rdf:li><rdf:li>red</rdf:li><rdf:li>road</rdf:li><rdf:li>save</rdf:li><rdf:li>spray</rdf:li><rdf:li>street</rdf:li><rdf:li>water</rdf:li></rdf:Bag></dc:subject></cc:Work><cc:License rdf:about="http://creativecommons.org/licenses/publicdomain/"><cc:permits rdf:resource="http://creativecommons.org/ns#Reproduction"/><cc:permits rdf:resource="http://creativecommons.org/ns#Distribution"/><cc:permits rdf:resource="http://creativecommons.org/ns#DerivativeWorks"/></cc:License></rdf:RDF></metadata></svg>
